<mxfile host="app.diagrams.net" modified="2021-05-14T05:14:54.406Z" agent="5.0 (Windows NT 10.0; Win64; x64) AppleWebKit/537.36 (KHTML, like Gecko) Chrome/90.0.4430.212 Safari/537.36" etag="TA5YyxDSVNIo68cqh1Ln" version="14.5.4" type="github">
  <diagram id="IUZOwWJPnHz6j3wQAR4H" name="Page-1">
    <mxGraphModel dx="2031" dy="1089" grid="1" gridSize="10" guides="1" tooltips="1" connect="1" arrows="1" fold="1" page="1" pageScale="1" pageWidth="850" pageHeight="1100" math="0" shadow="0">
      <root>
        <mxCell id="0" />
        <mxCell id="1" parent="0" />
        <mxCell id="6AFip4F762A86VWE4Zkr-2" value="H264 stream" style="shape=cylinder3;whiteSpace=wrap;html=1;boundedLbl=1;backgroundOutline=1;size=15;" vertex="1" parent="1">
          <mxGeometry x="370" y="180" width="110" height="80" as="geometry" />
        </mxCell>
        <mxCell id="6AFip4F762A86VWE4Zkr-3" value="" style="curved=1;endArrow=classic;html=1;" edge="1" parent="1">
          <mxGeometry width="50" height="50" relative="1" as="geometry">
            <mxPoint x="410" y="280" as="sourcePoint" />
            <mxPoint x="170" y="370" as="targetPoint" />
            <Array as="points">
              <mxPoint x="340" y="330" />
              <mxPoint x="190" y="290" />
            </Array>
          </mxGeometry>
        </mxCell>
        <mxCell id="6AFip4F762A86VWE4Zkr-4" value="" style="curved=1;endArrow=classic;html=1;" edge="1" parent="1">
          <mxGeometry width="50" height="50" relative="1" as="geometry">
            <mxPoint x="430" y="280" as="sourcePoint" />
            <mxPoint x="710" y="360" as="targetPoint" />
            <Array as="points">
              <mxPoint x="490" y="330" />
              <mxPoint x="680" y="280" />
            </Array>
          </mxGeometry>
        </mxCell>
        <mxCell id="6AFip4F762A86VWE4Zkr-5" value="H264 package" style="text;html=1;strokeColor=none;fillColor=none;align=center;verticalAlign=middle;whiteSpace=wrap;rounded=0;" vertex="1" parent="1">
          <mxGeometry x="200" y="270" width="40" height="20" as="geometry" />
        </mxCell>
        <mxCell id="6AFip4F762A86VWE4Zkr-6" value="H264 package" style="text;html=1;strokeColor=none;fillColor=none;align=center;verticalAlign=middle;whiteSpace=wrap;rounded=0;" vertex="1" parent="1">
          <mxGeometry x="630" y="270" width="40" height="20" as="geometry" />
        </mxCell>
        <mxCell id="6AFip4F762A86VWE4Zkr-7" value="&lt;font style=&quot;font-size: 14px&quot;&gt;FFMPEG-based&lt;br&gt;Atins decoder&lt;/font&gt;" style="rounded=1;whiteSpace=wrap;html=1;" vertex="1" parent="1">
          <mxGeometry x="100" y="380" width="160" height="60" as="geometry" />
        </mxCell>
        <mxCell id="6AFip4F762A86VWE4Zkr-8" value="&lt;font style=&quot;font-size: 14px&quot;&gt;FFMPEG-based&lt;br&gt;decoder&lt;/font&gt;" style="rounded=1;whiteSpace=wrap;html=1;" vertex="1" parent="1">
          <mxGeometry x="640" y="380" width="160" height="60" as="geometry" />
        </mxCell>
        <mxCell id="6AFip4F762A86VWE4Zkr-9" value="&lt;font style=&quot;font-size: 15px&quot;&gt;metadata&lt;/font&gt;" style="rounded=1;whiteSpace=wrap;html=1;" vertex="1" parent="1">
          <mxGeometry x="40" y="480" width="120" height="60" as="geometry" />
        </mxCell>
        <mxCell id="6AFip4F762A86VWE4Zkr-10" value="&lt;font style=&quot;font-size: 15px&quot;&gt;frame&lt;/font&gt;" style="rounded=1;whiteSpace=wrap;html=1;" vertex="1" parent="1">
          <mxGeometry x="210" y="480" width="120" height="60" as="geometry" />
        </mxCell>
        <mxCell id="6AFip4F762A86VWE4Zkr-11" value="&lt;font style=&quot;font-size: 15px&quot;&gt;BBox detection&lt;/font&gt;" style="rounded=1;whiteSpace=wrap;html=1;" vertex="1" parent="1">
          <mxGeometry x="40" y="590" width="120" height="60" as="geometry" />
        </mxCell>
        <mxCell id="6AFip4F762A86VWE4Zkr-12" value="&lt;span style=&quot;font-size: 15px&quot;&gt;queue of cropped regions&lt;/span&gt;" style="rounded=1;whiteSpace=wrap;html=1;" vertex="1" parent="1">
          <mxGeometry x="210" y="590" width="120" height="60" as="geometry" />
        </mxCell>
        <mxCell id="6AFip4F762A86VWE4Zkr-13" value="&lt;font style=&quot;font-size: 15px&quot;&gt;Classifier&lt;/font&gt;" style="rounded=1;whiteSpace=wrap;html=1;" vertex="1" parent="1">
          <mxGeometry x="210" y="710" width="120" height="60" as="geometry" />
        </mxCell>
        <mxCell id="6AFip4F762A86VWE4Zkr-14" value="" style="endArrow=classic;html=1;" edge="1" parent="1">
          <mxGeometry width="50" height="50" relative="1" as="geometry">
            <mxPoint x="120" y="446" as="sourcePoint" />
            <mxPoint x="120" y="476" as="targetPoint" />
          </mxGeometry>
        </mxCell>
        <mxCell id="6AFip4F762A86VWE4Zkr-15" value="" style="endArrow=classic;html=1;" edge="1" parent="1">
          <mxGeometry width="50" height="50" relative="1" as="geometry">
            <mxPoint x="240" y="446.0000000000001" as="sourcePoint" />
            <mxPoint x="240" y="476.0000000000001" as="targetPoint" />
          </mxGeometry>
        </mxCell>
        <mxCell id="6AFip4F762A86VWE4Zkr-16" value="" style="endArrow=classic;html=1;" edge="1" parent="1">
          <mxGeometry width="50" height="50" relative="1" as="geometry">
            <mxPoint x="99.17" y="550.0000000000001" as="sourcePoint" />
            <mxPoint x="99.17" y="580.0000000000001" as="targetPoint" />
          </mxGeometry>
        </mxCell>
        <mxCell id="6AFip4F762A86VWE4Zkr-17" value="" style="endArrow=classic;html=1;" edge="1" parent="1">
          <mxGeometry width="50" height="50" relative="1" as="geometry">
            <mxPoint x="269.58" y="550" as="sourcePoint" />
            <mxPoint x="269.58" y="580" as="targetPoint" />
          </mxGeometry>
        </mxCell>
        <mxCell id="6AFip4F762A86VWE4Zkr-18" value="" style="endArrow=classic;html=1;" edge="1" parent="1">
          <mxGeometry width="50" height="50" relative="1" as="geometry">
            <mxPoint x="170" y="619.5799999999999" as="sourcePoint" />
            <mxPoint x="200" y="619.5799999999999" as="targetPoint" />
          </mxGeometry>
        </mxCell>
        <mxCell id="6AFip4F762A86VWE4Zkr-19" value="" style="endArrow=classic;html=1;" edge="1" parent="1">
          <mxGeometry width="50" height="50" relative="1" as="geometry">
            <mxPoint x="269.58" y="670" as="sourcePoint" />
            <mxPoint x="269.58" y="700" as="targetPoint" />
          </mxGeometry>
        </mxCell>
        <mxCell id="6AFip4F762A86VWE4Zkr-20" value="" style="endArrow=classic;html=1;" edge="1" parent="1">
          <mxGeometry width="50" height="50" relative="1" as="geometry">
            <mxPoint x="269.5799999999999" y="780" as="sourcePoint" />
            <mxPoint x="269.5799999999999" y="810" as="targetPoint" />
          </mxGeometry>
        </mxCell>
        <mxCell id="6AFip4F762A86VWE4Zkr-21" value="&lt;font style=&quot;font-size: 15px&quot;&gt;Detected objects&lt;/font&gt;" style="rounded=1;whiteSpace=wrap;html=1;" vertex="1" parent="1">
          <mxGeometry x="210" y="820" width="120" height="60" as="geometry" />
        </mxCell>
        <mxCell id="6AFip4F762A86VWE4Zkr-22" value="&lt;font style=&quot;font-size: 15px&quot;&gt;YOLOv4&lt;/font&gt;" style="rounded=1;whiteSpace=wrap;html=1;" vertex="1" parent="1">
          <mxGeometry x="660" y="600" width="120" height="60" as="geometry" />
        </mxCell>
        <mxCell id="6AFip4F762A86VWE4Zkr-23" value="&lt;font style=&quot;font-size: 15px&quot;&gt;Detected objects&lt;/font&gt;" style="rounded=1;whiteSpace=wrap;html=1;" vertex="1" parent="1">
          <mxGeometry x="660" y="710" width="120" height="60" as="geometry" />
        </mxCell>
        <mxCell id="6AFip4F762A86VWE4Zkr-24" value="" style="endArrow=classic;html=1;" edge="1" parent="1">
          <mxGeometry width="50" height="50" relative="1" as="geometry">
            <mxPoint x="719.5799999999999" y="450" as="sourcePoint" />
            <mxPoint x="719.5799999999999" y="480" as="targetPoint" />
          </mxGeometry>
        </mxCell>
        <mxCell id="6AFip4F762A86VWE4Zkr-25" value="" style="endArrow=classic;html=1;" edge="1" parent="1">
          <mxGeometry width="50" height="50" relative="1" as="geometry">
            <mxPoint x="719.5799999999997" y="670" as="sourcePoint" />
            <mxPoint x="719.5799999999997" y="700" as="targetPoint" />
          </mxGeometry>
        </mxCell>
        <mxCell id="6AFip4F762A86VWE4Zkr-26" value="&lt;font style=&quot;font-size: 15px&quot;&gt;frame&lt;/font&gt;" style="rounded=1;whiteSpace=wrap;html=1;" vertex="1" parent="1">
          <mxGeometry x="660" y="490" width="120" height="60" as="geometry" />
        </mxCell>
        <mxCell id="6AFip4F762A86VWE4Zkr-27" value="" style="endArrow=classic;html=1;" edge="1" parent="1">
          <mxGeometry width="50" height="50" relative="1" as="geometry">
            <mxPoint x="719.5799999999997" y="560" as="sourcePoint" />
            <mxPoint x="719.5799999999997" y="590" as="targetPoint" />
          </mxGeometry>
        </mxCell>
      </root>
    </mxGraphModel>
  </diagram>
</mxfile>
